<?xml version="1.0" encoding="UTF-8" standalone="no"?>
<!-- Created with Inkscape (http://www.inkscape.org/) -->

<svg
   width="54.081001mm"
   height="45.203743mm"
   viewBox="0 0 54.081001 45.203743"
   version="1.1"
   id="svg1"
   xml:space="preserve"
   inkscape:version="1.3.2 (091e20e, 2023-11-25, custom)"
   sodipodi:docname="etymo_logo_full.svg"
   xmlns:inkscape="http://www.inkscape.org/namespaces/inkscape"
   xmlns:sodipodi="http://sodipodi.sourceforge.net/DTD/sodipodi-0.dtd"
   xmlns="http://www.w3.org/2000/svg"
   xmlns:svg="http://www.w3.org/2000/svg"><sodipodi:namedview
     id="namedview1"
     pagecolor="#ffffff"
     bordercolor="#000000"
     borderopacity="0.25"
     inkscape:showpageshadow="2"
     inkscape:pageopacity="0.0"
     inkscape:pagecheckerboard="0"
     inkscape:deskcolor="#d1d1d1"
     inkscape:document-units="mm"
     showgrid="false"
     inkscape:zoom="2.0899411"
     inkscape:cx="80.863524"
     inkscape:cy="114.35729"
     inkscape:window-width="1550"
     inkscape:window-height="1246"
     inkscape:window-x="570"
     inkscape:window-y="164"
     inkscape:window-maximized="0"
     inkscape:current-layer="layer1" /><defs
     id="defs1" /><g
     inkscape:label="Layer 1"
     inkscape:groupmode="layer"
     id="layer1"
     transform="translate(-36.191031,-67.097024)"><path
       style="fill:#000000;stroke-width:0.5"
       d="m 60.060305,111.98891 c -2.469631,-1.30381 -1.385176,-4.9115 1.476375,-4.9115 2.20094,0 3.44794,2.56862 2.06279,4.24904 -0.796565,0.96638 -2.39631,1.26581 -3.539165,0.66246 z m -15.672726,-1.08782 c -4.505325,-1.2232 -7.020325,-4.72561 -7.259891,-10.11018 -0.06025,-1.354165 -0.11526,-1.696985 -0.30597,-1.906735 -1.056664,-1.162166 -0.747897,-3.047166 0.644361,-3.933776 0.331895,-0.21135 0.489081,-0.43515 0.620481,-0.88341 2.790983,-9.521229 14.515232,-11.485086 18.65927,-3.125489 2.438594,4.919269 -4.475106,10.23868 -12.834501,9.87488 -1.871903,-0.0815 -1.757264,-0.18967 -1.430925,1.35055 1.064965,5.02628 8.055503,5.14683 10.831183,0.18678 1.811101,-3.236385 6.069447,-0.71372 4.466117,2.64574 -1.961637,4.11025 -8.833196,7.13886 -13.390125,5.90164 z m 2.482777,-15.452921 c 1.874932,-0.35567 4.290958,-1.41898 4.9971,-2.19926 0.238867,-0.26394 0.234939,-0.27083 -0.650683,-1.140779 -1.879121,-1.845875 -3.992554,-1.847485 -5.941215,-0.0045 -1.042657,0.986099 -2.421373,3.312459 -2.052425,3.463129 0.34554,0.14111 2.678027,0.0653 3.647223,-0.11857 z M 75.252485,110.88194 C 71.00873,110.21382 65.58274,105.8358 64.6933,102.36215 63.367105,97.182749 66.909395,87.588425 70.502905,86.6268 c 0.30507,-0.08163 0.95472,-0.281645 1.44367,-0.44446 4.02352,-1.33979 8.968383,-1.077415 11.192478,0.59388 1.758195,1.3212 2.34193,1.7919 2.82614,2.27888 9.216098,9.268909 2.065255,23.83853 -10.712708,21.82684 z m 4.695088,-4.22523 c 2.534855,-0.70287 5.48358,-3.62863 6.107,-6.05943 0.87785,-3.422861 -2.006305,-8.80579 -5.72956,-10.69356 -1.608468,-0.81553 -6.140148,-0.44514 -8.102303,0.662235 -2.641635,1.49085 -4.76679,9.07228 -3.206535,11.439235 2.45933,3.73085 7.11187,5.7106 10.931398,4.65152 z m -4.001788,-6.723055 c -2.16835,-1.475756 -0.37201,-4.690486 1.99368,-3.567896 1.412973,0.6705 1.426163,2.792766 0.0223,3.591056 -0.627315,0.356715 -1.47211,0.347015 -2.016,-0.0232 z"
       id="path1" /><g
       id="g10"
       transform="translate(-2.0255754,-15.69821)"
       style="fill:#83ec93;fill-opacity:1"><path
         style="fill:#83ec93;fill-opacity:1;stroke-width:0.264583"
         id="path7"
         d="m 51.041201,101.4071 c 2.839043,0.0753 5.687343,-0.70991 8.240996,-1.917905 0.645147,-0.305184 1.25336,-0.683001 1.880039,-1.024504 0.559171,-0.447781 1.76494,-1.229069 2.056583,-2.038413 0.103155,-0.286272 -0.02975,-0.607854 -0.04462,-0.911781 0.03049,-0.04033 -0.539824,-0.47145 -0.570306,-0.431123 v 0 c -0.247587,-0.04984 -0.490776,-0.166449 -0.74276,-0.14951 -0.544751,0.03662 -2.252509,0.694547 -2.584659,0.812421 -3.023166,1.30369 -6.091558,2.606106 -8.820885,4.469585 -0.08423,0.0414 0.50138,1.23264 0.585612,1.19123 z" /><path
         style="fill:#83ec93;fill-opacity:1;stroke-width:0.264583"
         id="path8"
         d="m 56.655292,90.477235 c -1.061686,3.058036 -1.345927,6.329418 -1.180166,9.549625 0.06509,1.26458 0.178181,2.53037 0.391313,3.77856 0.194829,1.14099 0.553107,2.24796 0.82966,3.37194 0.84138,1.84389 0.973071,2.86148 2.573372,4.06227 0.338463,0.25397 0.790807,0.30142 1.186211,0.45212 0.04073,0.0526 0.784064,-0.52343 0.743334,-0.57599 v 0 c 0.267528,-1.54787 0.110151,-3.07331 -0.16919,-4.61809 -0.826424,-5.35431 -1.708902,-10.721606 -3.268816,-15.919885 0.0071,-0.07819 -1.098609,-0.178737 -1.105718,-0.10055 z" /></g><path
       style="fill:#ec83dc;fill-opacity:1;stroke-width:0.264583"
       id="path10"
       d="m 67.794188,94.070155 c -0.01873,-3.08533 -0.237418,-6.16435 -0.37159,-9.24573 0.01402,-0.71411 -0.03946,-1.2556 0.14011,-1.92066 0.01595,-0.0589 0.05969,0.14246 0.01377,0.18264 -0.210934,0.18454 -0.618095,0.17364 -0.719598,0.43485 -0.106965,0.27532 0.149506,0.57158 0.216868,0.85917 0.107929,0.46081 0.205961,0.92389 0.308933,1.38584 0.225558,1.09935 0.386231,1.94312 0.65476,3.0251 0.08709,0.35086 0.125225,0.72267 0.287403,1.04576 0.524262,1.04455 2.128573,0.28196 2.76151,-0.11668 0.437921,-0.27581 0.496941,-0.90798 0.745412,-1.36197 0.578622,-1.15271 0.94574,-2.39719 1.489715,-3.56437 0.210123,-0.45084 0.410059,-0.91633 0.712937,-1.31088 0.14541,-0.18942 0.40354,-0.53553 0.597148,-0.39576 0.18208,0.13145 -0.423588,0.28106 -0.446569,0.50446 -0.03672,0.35676 0.192035,0.6911 0.288006,1.03667 0.521992,2.09109 0.427446,1.97057 1.242386,4.08699 0.239801,0.62281 0.54022,1.22115 0.779887,1.84401 0.157053,0.40819 0.272863,0.83107 0.409292,1.2466 -0.0041,0.11043 1.55764,0.16734 1.561667,0.0569 v 0 c 0.187307,-0.52577 0.445205,-1.03152 0.561925,-1.57733 0.388999,-1.81903 0.431463,-3.39276 -0.228781,-5.19496 -0.327434,-0.89378 -0.953097,-1.64799 -1.42964,-2.47197 -0.678403,-0.57889 -1.194499,-1.43912 -2.035221,-1.73665 -0.892373,-0.31582 -1.921733,-0.21935 -2.839803,0.0113 -0.637201,0.16011 -1.171435,0.6387 -1.627908,1.11124 -1.498291,1.55103 -1.88961,3.78545 -2.141386,5.82058 0.129724,1.8647 -0.337789,1.68541 2.109891,1.95078 0.124281,0.0135 0.23652,-0.14953 0.257384,-0.2728 0.06618,-0.39089 0.02169,-0.79412 -0.0099,-1.18931 -0.143086,-1.7894 -0.229136,-1.70444 -0.780358,-3.47861 -0.363161,-0.71814 -1.096551,-2.47532 -1.908728,-2.93965 -1.813909,-1.03704 -3.082998,-0.41674 -3.774882,1.33865 -0.198931,0.50485 -0.267561,1.05176 -0.401341,1.57764 -0.04303,0.64027 -0.130617,1.27909 -0.129076,1.9208 0.0064,2.6814 0.616562,5.51979 2.038946,7.81392 0.03367,0.1179 1.700576,-0.3587 1.666765,-0.47695 z" /><path
       style="fill:#ad83ec;fill-opacity:1;stroke-width:0.264583"
       id="path14"
       d="m 56.044674,86.264518 c 0.36821,1.51747 1.03203,3.04014 2.16241,4.15487 0.30275,0.29856 0.62471,0.59655 1.00658,0.78354 0.41023,0.20089 0.88197,0.23814 1.32296,0.35721 0.61212,-0.13501 1.26708,-0.14268 1.83636,-0.40504 0.4353,-0.2006 0.7648,-0.58655 1.08641,-0.94192 0.87847,-0.97067 1.46556,-2.25562 1.60749,-3.5574 0.0314,-0.28805 -0.0113,-0.57941 -0.0169,-0.86911 -0.29025,-0.68342 -0.31364,-1.13165 -1.57898,-0.82614 -0.32702,0.079 -0.45298,0.50162 -0.63449,0.78488 -0.44721,0.69796 -0.80245,1.70748 -1.10781,2.44641 -0.30799,0.74528 -0.62074,1.48859 -0.93112,2.23289 -0.88764,2.7595 -1.35613,5.6365 -1.36172,8.537123 -0.002,1.02937 0.0892,2.986639 0.55277,4.031839 0.16573,0.37369 0.5109,0.63829 0.76634,0.95744 0.01,0.0768 1.09596,-0.0631 1.08607,-0.13988 v 0 c 0.16237,-0.28647 0.379,-0.54839 0.48713,-0.85943 0.24041,-0.69153 0.61911,-3.151459 0.70459,-3.670309 0.44958,-2.728793 0.92844,-5.457653 1.16395,-8.215663 0.0315,-0.77066 0.0398,-1.54262 0.0944,-2.31198 0.016,-0.22515 0.44517,-2.52951 0.11056,-2.78814 -0.30654,-0.23693 -0.66787,-0.40436 -1.03427,-0.53024 -0.0561,-0.0193 -0.0772,0.0901 -0.11586,0.1351 -0.37592,1.11771 -0.76621,2.32855 -1.42827,3.31468 -0.14139,0.2106 -0.38043,0.34809 -0.50568,0.56867 -0.0465,0.0818 0.0154,0.18755 0.023,0.28133 -0.17144,-0.002 -0.36133,0.072 -0.51434,-0.005 -0.40581,-0.20524 -1.13996,-1.16463 -1.36509,-1.45173 -0.66042,-0.84216 -1.20602,-1.75582 -1.87964,-2.58672 -0.0405,-0.10867 -1.57741,0.46442 -1.53689,0.57309 z" /><path
       style="fill:#c2ec83;fill-opacity:1;stroke-width:0.264583"
       id="path17"
       d="m 82.998839,84.97927 c 0.741538,-0.953637 1.230744,-1.538331 1.889823,-2.64712 0.421899,-0.709772 0.775561,-1.457946 1.16293,-2.187139 0.468894,-0.882668 0.970727,-1.748651 1.40586,-2.648442 1.096665,-2.267727 1.345564,-3.115849 2.193515,-5.429867 0.388566,-1.465929 0.822998,-2.273769 0.518795,-3.751348 -0.06466,-0.314059 -0.301902,-0.565783 -0.452853,-0.848676 0.02578,-0.05236 -0.714714,-0.416885 -0.740489,-0.364524 v 0 c -0.352286,0.08851 -0.743367,0.08206 -1.056862,0.265526 -1.357129,0.794245 -1.65563,1.707528 -2.4813,3.038355 -1.105284,2.275865 -1.522854,2.971782 -2.370034,5.416442 -0.328929,0.949172 -0.580247,1.923516 -0.861831,2.887796 -0.546318,1.870854 -1.082048,3.677006 -1.057561,5.647192 -0.04397,0.130814 1.806038,0.75262 1.850007,0.621805 z" /></g></svg>
